<svg viewBox="0 0 512 512" xmlns="http://www.w3.org/2000/svg"><path d="m512 241v271h-121l-15-30-15 30h-210l-15-30-15 30h-121v-271l91 60h330zm0 0" fill="#3e5959"/><path d="m512 241v271h-121l-15-30-15 30h-105v-211h165zm0 0" fill="#384949"/><path d="m121 391h30v121h-30zm0 0" fill="#4a696f"/><path d="m361 391h30v121h-30zm0 0" fill="#3e5959"/><path d="m136 427.210938-45-45v-81.210938h90v81.210938zm0 0" fill="#fdbf00"/><path d="m376 427.210938-45-45v-81.210938h90v81.210938zm0 0" fill="#ff9f00"/><path d="m361 0v121l-15 30-15-30v-61h-150v61l-15 30-15-30v-121zm0 0" fill="#3e5959"/><path d="m331 60h-75v-60h105v121l-15 30-15-30zm0 0" fill="#384949"/><path d="m512 121v120l-91 90h-330l-91-90v-120zm0 0" fill="#4a696f"/><path d="m151 241h210v30h-210zm0 0" fill="#3e5959"/><path d="m512 121v120l-91 90h-165v-210zm0 0" fill="#3e5959"/><path d="m256 241h105v30h-105zm0 0" fill="#384949"/></svg>