<svg height="512pt" viewBox="0 0 512 512" width="512pt" xmlns="http://www.w3.org/2000/svg"><path d="m512 256c0 141.386719-114.613281 256-256 256s-256-114.613281-256-256 114.613281-256 256-256 256 114.613281 256 256zm0 0" fill="#53c9e5"/><path d="m256 512c58.6875 0 112.75-19.761719 155.929688-52.976562-5.339844-81.472657-73.105469-145.902344-155.929688-145.902344s-150.589844 64.429687-155.929688 145.902344c43.179688 33.214843 97.242188 52.976562 155.929688 52.976562zm0 0" fill="#499421"/><path d="m.476562 271.433594c5.90625 99.269531 68.363282 183.3125 155.613282 220.335937v-429.625l-80.660156 33.917969zm0 0" fill="#f9b721"/><g fill="#e58b25"><path d="m156.09375 345.300781-86.332031 86.332031c3.433593 3.636719 6.972656 7.171876 10.609375 10.601563l75.722656-75.71875zm0 0"/><path d="m156.09375 305.5v-16.234375l-139.421875 57.75c1.78125 4.6875 3.707031 9.304687 5.75 13.851563zm0 0"/><path d="m156.09375 263.5v-15h-145.816406l-6.410156 15zm0 0"/></g><path d="m47.84375 160.609375c-3.085938 14.402344-4.726562 29.335937-4.726562 44.644531 0 65.378906 12.074218 113.46875 37.992187 151.34375 17.695313 25.855469 41.453125 45.734375 70.613281 59.082032 1.4375.660156 2.902344 1.289062 4.367188 1.914062v-355.449219l-80.660156 33.917969zm0 0" fill="#0b17af"/><path d="m511.523438 271.433594-74.953126-175.371094-80.664062-33.917969v429.625c87.253906-37.023437 149.710938-121.066406 155.617188-220.335937zm0 0" fill="#f9b721"/><path d="m355.90625 345.300781v21.214844l75.722656 75.71875c3.636719-3.429687 7.175782-6.964844 10.609375-10.601563zm0 0" fill="#e58b25"/><path d="m355.90625 248.5v15h152.226562l-6.410156-15zm0 0" fill="#e58b25"/><path d="m355.90625 289.265625v16.234375l133.671875 55.367188c2.042969-4.550782 3.96875-9.167969 5.75-13.851563zm0 0" fill="#e58b25"/><path d="m355.90625 62.144531v355.449219c1.46875-.625 2.929688-1.253906 4.367188-1.914062 29.164062-13.347657 52.921874-33.226563 70.617187-59.082032 25.917969-37.875 37.992187-85.964844 37.992187-151.34375 0-15.3125-1.640624-30.242187-4.726562-44.644531l-27.585938-64.546875zm0 0" fill="#0b17af"/><path d="m100.8125 164.042969h309.933594c5.292968-55.664063 25.824218-67.980469 25.824218-67.980469-36.679687-47.089844-113.667968-80.214844-180.570312-80.214844s-143.890625 33.125-180.570312 80.214844c0 0 20.089843 12.316406 25.382812 67.980469zm0 0" fill="#3e3aff"/><path d="m148.25 164.042969c9.859375-69.808594 48.820312-148.195313 107.75-148.195313-66.90625 0-143.890625 33.125-180.570312 80.214844 0 0 20.089843 12.316406 25.382812 67.980469zm0 0" fill="#2529d7"/><path d="m305.75 164.042969h-204.820312c-.796876 12.0625-1.210938 23.429687-1.210938 33.476562l.214844-.074219c-.128906 2.589844-.214844 5.1875-.214844 7.808594 0 86.3125 22.835938 174.015625 156.28125 174.015625s156.28125-87.703125 156.28125-174.015625c0-12.003906-.589844-26.113281-1.714844-41.210937zm0 0" fill="#70ab2a"/><path d="m139.71875 205.253906c0-2.621094.085938-5.21875.214844-7.804687l-.214844.074219c0-10.050782.414062-21.414063 1.210938-33.480469h-40c-.796876 12.066406-1.210938 23.429687-1.210938 33.480469l.214844-.074219c-.128906 2.585937-.214844 5.1875-.214844 7.804687 0 86.3125 22.835938 174.015625 156.28125 174.015625 6.96875 0 13.621094-.253906 20-.71875-115.75-8.453125-136.28125-91.492187-136.28125-173.296875zm0 0" fill="#499421"/><path d="m389.238281 225h-25.542969c-.878906 0-1.679687-.535156-1.980468-1.359375-1.144532-3.109375-2.929688-6.003906-5.34375-8.476563-7.089844-7.265624-16.589844-11.269531-26.742188-11.269531-.78125 0-1.574218.023438-2.359375.074219-18.753906 1.164062-33.773437 16.183594-34.9375 34.9375-.675781 10.890625 3.40625 21.496094 11.199219 29.101562 4.523438 4.414063 10.464844 6.847657 16.726562 6.847657 11.65625 0 37.914063-26.078125 41.042969-33.496094 0-.003906.003907-.007813.003907-.011719.339843-.808594 1.105468-1.347656 1.980468-1.347656h26.265625c4.21875 0 7.625-3.484375 7.5-7.730469-.125-4.105469-3.703125-7.269531-7.8125-7.269531zm0 0" fill="#f9b721"/><path d="m345.636719 225.640625c-4.367188-4.476563-10.597657-7.125-17.433594-6.699219-11.140625.691406-20.207031 9.753906-20.898437 20.894532-.421876 6.839843 2.226562 13.070312 6.703124 17.4375 5.8125 5.671874 15.621094 1.375 15.621094-6.746094 0-5.117188 4.148438-9.265625 9.261719-9.265625 8.121094 0 12.417969-9.808594 6.746094-15.621094zm0 0" fill="#262b3b"/><path d="m122.761719 225h25.542969c.878906 0 1.679687-.535156 1.980468-1.359375 1.144532-3.109375 2.929688-6.003906 5.34375-8.476563 7.089844-7.265624 16.589844-11.269531 26.742188-11.269531.78125 0 1.574218.023438 2.359375.074219 18.753906 1.164062 33.773437 16.183594 34.9375 34.9375.675781 10.890625-3.40625 21.496094-11.199219 29.101562-4.523438 4.414063-10.464844 6.847657-16.726562 6.847657-11.65625 0-37.914063-26.078125-41.042969-33.496094 0-.003906-.003907-.007813-.003907-.011719-.339843-.808594-1.105468-1.347656-1.980468-1.347656h-26.265625c-4.21875 0-7.625-3.484375-7.5-7.730469.125-4.105469 3.703125-7.269531 7.8125-7.269531zm0 0" fill="#f9b721"/><path d="m166.363281 225.640625c4.367188-4.476563 10.597657-7.125 17.433594-6.699219 11.140625.691406 20.207031 9.753906 20.898437 20.894532.421876 6.839843-2.226562 13.070312-6.703124 17.4375-5.8125 5.671874-15.621094 1.375-15.621094-6.746094 0-5.117188-4.148438-9.265625-9.261719-9.265625-8.121094 0-12.417969-9.808594-6.746094-15.621094zm0 0" fill="#262b3b"/><path d="m358.398438 442.234375h-204.796876c-19.5625 0-36.207031-14.261719-39.199218-33.597656l-14.796875-95.515625h312.789062l-14.792969 95.515625c-2.996093 19.335937-19.640624 33.597656-39.203124 33.597656zm0 0" fill="#70ab2a"/><path d="m154.402344 408.636719-14.796875-95.515625h-40l14.796875 95.515625c2.992187 19.335937 19.636718 33.597656 39.199218 33.597656h40c-19.5625 0-36.207031-14.261719-39.199218-33.597656zm0 0" fill="#499421"/><path d="m370.875 338.261719c0 8.023437-14.242188 79.332031-31.808594 79.332031s-31.804687-71.308594-31.804687-79.332031c0-8.023438 14.238281-7.644531 31.804687-7.644531s31.808594-.378907 31.808594 7.644531zm0 0" fill="#f2ede1"/><path d="m327.261719 338.261719c0-6.425781 9.140625-7.460938 21.804687-7.617188-3.144531-.039062-6.503906-.027343-10-.027343-17.5625 0-31.804687-.378907-31.804687 7.644531 0 8.023437 14.238281 79.332031 31.804687 79.332031 3.496094 0 6.855469-2.824219 10-7.410156-12.664062-18.457032-21.804687-65.492188-21.804687-71.921875zm0 0" fill="#e6d8ba"/><path d="m204.738281 338.261719c0 8.023437-14.238281 79.332031-31.804687 79.332031-17.570313 0-31.808594-71.308594-31.808594-79.332031 0-8.023438 14.238281-7.644531 31.808594-7.644531 17.566406 0 31.804687-.378907 31.804687 7.644531zm0 0" fill="#f2ede1"/><path d="m161.125 338.261719c0-6.425781 9.140625-7.460938 21.808594-7.617188-3.148438-.039062-6.503906-.027343-10-.027343-17.566406 0-31.808594-.378907-31.808594 7.644531 0 8.023437 14.242188 79.332031 31.808594 79.332031 3.492187 0 6.855468-2.824219 10-7.410156-12.667969-18.457032-21.808594-65.492188-21.808594-71.921875zm0 0" fill="#e6d8ba"/><path d="m231.707031 352.765625c0 4.773437-8.476562 47.234375-18.9375 47.234375-10.457031 0-18.9375-42.460938-18.9375-47.234375 0-4.777344 8.480469-4.550781 18.9375-4.550781 10.460938 0 18.9375-.226563 18.9375 4.550781zm0 0" fill="#f2ede1"/><path d="m318.167969 352.765625c0 4.773437-8.480469 47.234375-18.9375 47.234375-10.460938 0-18.9375-42.460938-18.9375-47.234375 0-4.777344 8.476562-4.550781 18.9375-4.550781 10.457031 0 18.9375-.226563 18.9375 4.550781zm0 0" fill="#f2ede1"/><path d="m408.90625 256-53.71875 41.605469c-3.980469 3.082031-9.632812 2.726562-13.195312-.835938-13.792969-13.792969-36.160157-13.792969-49.953126 0l-3.300781 3.300781c-1.875 1.875-4.421875 2.929688-7.074219 2.929688h-51.328124c-2.652344 0-5.195313-1.054688-7.070313-2.929688l-3.300781-3.300781c-13.796875-13.792969-36.160156-13.792969-49.957032 0-3.5625 3.5625-9.210937 3.917969-13.195312.835938l-53.71875-41.605469c-14.558594 11.0625-19.644531 30.652344-12.3125 47.402344l30.597656 69.878906c1.589844 3.636719 5.1875 5.988281 9.15625 5.988281h250.925782c3.972656 0 7.566406-2.351562 9.160156-5.988281l30.59375-69.878906c7.335937-16.75 2.25-36.339844-12.308594-47.402344zm0 0" fill="#96c133"/><path d="m161.378906 373.28125-30.597656-69.878906c-3.871094-8.84375-4.277344-18.484375-1.65625-27.242188l-26.03125-20.160156c-14.558594 11.0625-19.644531 30.652344-12.3125 47.402344l30.597656 69.878906c1.59375 3.636719 5.1875 5.988281 9.160156 5.988281h40c-3.972656 0-7.566406-2.351562-9.160156-5.988281zm0 0" fill="#70ab2a"/></svg>